<?xml version="1.0" encoding="UTF-8" standalone="no"?>
<!DOCTYPE svg PUBLIC "-//W3C//DTD SVG 1.1//EN" "http://www.w3.org/Graphics/SVG/1.1/DTD/svg11.dtd">
<svg width="100%" height="100%" viewBox="0 0 4000 2500" version="1.1" xmlns="http://www.w3.org/2000/svg" xmlns:xlink="http://www.w3.org/1999/xlink" xml:space="preserve" xmlns:serif="http://www.serif.com/" style="fill-rule:evenodd;clip-rule:evenodd;stroke-linejoin:round;stroke-miterlimit:2;">
    <rect id="Artboard1" x="0" y="0" width="4000" height="2500" style="fill:none;"/>
    <g id="Artboard11" serif:id="Artboard1">
        <g transform="matrix(1,0,0,1,-1181.25,0)">
            <g transform="matrix(1,0,0,1,993.845,-36.2189)">
                <g>
                    <g transform="matrix(0.932206,-0.478014,0.486705,0.949155,-595.192,807.363)">
                        <rect x="600" y="600" width="2100" height="1500" style="fill:white;"/>
                    </g>
                    <g transform="matrix(0.889833,-0.456286,0.456286,0.889833,-416.905,873.274)">
                        <path d="M500,500C866.667,766.667 1233.33,1033.33 1600,1300C1966.67,1033.33 2333.33,766.667 2700,500L500,500Z" style="fill:rgb(234,234,234);"/>
                    </g>
                </g>
            </g>
            <g transform="matrix(0.10968,-0.0633238,0.0738184,0.127857,2992.71,783.403)">
                <path d="M-6797.27,2496.08C-6874.14,2368.98 -6916.18,2226.01 -6916.18,2077.89L-6916.18,856.101C-6916.18,531.627 -6714.39,231.809 -6386.83,69.576L-5153.35,-541.329C-4989.57,-622.445 -4806.79,-663.003 -4623.99,-663.003C-4441.2,-663.003 -4258.42,-622.445 -4094.64,-541.329L-2861.16,69.576C-2533.6,231.809 -2331.8,531.627 -2331.8,856.101L-2331.8,2077.89C-2331.8,2226.01 -2373.86,2368.98 -2450.72,2496.08C-2459.43,2510.57 -2468.63,2524.81 -2478.27,2538.8C-2569.49,2671.65 -2700.12,2784.68 -2861.16,2864.43L-4094.64,3475.35C-4422.2,3637.55 -4825.78,3637.55 -5153.35,3475.35L-6386.83,2864.43C-6547.86,2784.68 -6678.5,2671.65 -6769.71,2538.8C-6779.36,2524.81 -6788.55,2510.57 -6797.27,2496.08Z" style="fill:rgb(49,0,29);"/>
            </g>
            <g transform="matrix(0.0964263,-0.0556718,0.0648982,0.112407,2944.51,841.452)">
                <g transform="matrix(4.96091,8.27671e-16,-2.25129e-15,4.25563,-9584.91,-1817.15)">
                    <circle cx="1000" cy="471.41" r="87.59" style="fill:rgb(137,24,92);"/>
                </g>
                <g transform="matrix(4.96091,8.27671e-16,-2.25129e-15,4.25563,-8294.7,99.8525)">
                    <circle cx="1000" cy="471.41" r="87.59" style="fill:rgb(137,24,92);"/>
                </g>
                <g transform="matrix(4.96091,1.41887e-15,-3.03235e-15,4.25563,-10875.1,99.8525)">
                    <circle cx="1000" cy="471.41" r="87.59" style="fill:rgb(137,24,92);"/>
                </g>
                <g transform="matrix(1.25977,0,0,0.963147,-8045.53,-6881.08)">
                    <path d="M990.86,9735.96C929.847,9604 896.471,9455.55 896.471,9301.77L896.471,8033.23C896.471,7696.34 1056.65,7385.05 1316.67,7216.61L2295.8,6582.33C2425.81,6498.11 2570.9,6456 2716,6456C2861.1,6456 3006.19,6498.11 3136.2,6582.33L4115.33,7216.61C4375.35,7385.05 4535.53,7696.34 4535.53,8033.23L4535.53,9301.77C4535.53,9455.55 4502.15,9604 4441.14,9735.96C4434.22,9751 4426.92,9765.79 4419.27,9780.31C4346.86,9918.25 4243.16,10035.6 4115.33,10118.4L3136.2,10752.7C2876.18,10921.1 2555.82,10921.1 2295.8,10752.7L1316.67,10118.4C1188.84,10035.6 1085.14,9918.25 1012.74,9780.31C1005.08,9765.79 997.783,9751 990.86,9735.96ZM4306.81,9335.64C4306.82,9334.08 4306.82,9332.51 4306.82,9330.95C4306.82,8980.04 4052.91,8695.14 3740.16,8695.14C3427.41,8695.14 3173.5,8980.04 3173.5,9330.95C3173.5,9681.86 3427.41,9966.76 3740.16,9966.76C3844.82,9966.76 3942.89,9934.85 4027.07,9879.24C4190.76,9757.02 4294.3,9555.81 4306.81,9335.64ZM1180.6,7751.33C1155.77,7812.49 1138.62,7877.81 1130.11,7945.46L2086.16,8564.79L2086.1,8564.89C2320.48,8717.19 2478.66,9001 2480.23,9326.09L2480.24,9326.09L2480.24,10546.5C2537.61,10565.3 2596.35,10577.1 2655.44,10581.9L2655.44,9330.94C2655.44,8944.68 2471.78,8587.75 2173.64,8394.61L1180.6,7751.33ZM2776.54,10581.9C2835.64,10577.1 2894.39,10565.3 2951.76,10546.5L2951.76,9330.95C2951.76,8997.72 3116.33,8707.28 3359.18,8556.45L4301.93,7945.74C4293.43,7877.99 4276.27,7812.57 4251.4,7751.32L4251.39,7751.32L3257.87,8395.75C2960,8588.96 2776.54,8945.72 2776.54,9331.77L2776.54,10581.9ZM4190.84,7633.64C4156.05,7578.93 4114.21,7529.61 4066.25,7487.51L3110.32,8106.76L3110.26,8106.66C2994.26,8182.04 2859.59,8225.2 2716,8225.2C2567.71,8225.2 2428.93,8179.16 2310.4,8099.15L1365.95,7487.34C1317.91,7529.48 1275.99,7578.86 1241.15,7633.65L2235.3,8276.83C2533.37,8469.67 2900.46,8469.55 3198.43,8276.53L4190.84,7633.65L4190.84,7633.64ZM4308.09,8717.63L4308.09,8227.96L3930.73,8472.41C4076.84,8513.17 4206.9,8599.7 4308.09,8717.63ZM3851.53,7340.39L3473.73,7095.65C3493.7,7173.45 3504.4,7255.64 3504.4,7340.6C3504.4,7425.38 3493.75,7507.4 3473.86,7585.05L3851.53,7340.39ZM3172.67,10434.4L3550.37,10189.7C3404.16,10149.1 3273.98,10062.7 3172.67,9944.78L3172.67,10434.4ZM1123.91,8227.66L1123.91,8717.63C1225.18,8599.61 1355.35,8513.04 1501.59,8472.32L1123.91,8227.66ZM1881.63,10189.7L2259.33,10434.4L2259.33,9944.78C2158.02,10062.7 2027.85,10149.1 1881.63,10189.7ZM1958.27,7095.65L1580.7,7340.24L1958.05,7584.68C1938.22,7507.14 1927.6,7425.25 1927.6,7340.6C1927.6,7255.64 1938.3,7173.45 1958.27,7095.65ZM1404.93,9879.24C1489.11,9934.85 1587.18,9966.76 1691.84,9966.76C2004.59,9966.76 2258.5,9681.86 2258.5,9330.95C2258.5,8980.04 2004.59,8695.14 1691.84,8695.14C1379.09,8695.14 1125.18,8980.04 1125.18,9330.95C1125.18,9332.51 1125.18,9334.08 1125.19,9335.64C1137.7,9555.81 1241.24,9757.02 1404.93,9879.24ZM2436.09,6787.76C2264.88,6897.2 2149.34,7103.88 2149.34,7340.6C2149.34,7691.51 2403.25,7976.41 2716,7976.41C3028.75,7976.41 3282.66,7691.51 3282.66,7340.6C3282.66,7103.88 3167.12,6897.2 2995.91,6787.76C2819.62,6689.69 2612.38,6689.69 2436.09,6787.76Z" style="fill:rgb(137,24,92);"/>
                </g>
            </g>
        </g>
        <g transform="matrix(-1.0375,0,0,-1,3990.6,2400)">
            <path d="M100,131.25C83.376,131.25 69.88,117.247 69.88,100C69.88,82.753 83.376,68.75 100,68.75L2500,68.75C2516.62,68.75 2530.12,82.753 2530.12,100C2530.12,117.247 2516.62,131.25 2500,131.25L100,131.25ZM100,731.25C83.376,731.25 69.88,717.247 69.88,700C69.88,682.753 83.376,668.75 100,668.75L1372.29,668.75C1388.91,668.75 1402.41,682.753 1402.41,700C1402.41,717.247 1388.91,731.25 1372.29,731.25L100,731.25ZM292.771,431.25C276.147,431.25 262.651,417.247 262.651,400C262.651,382.753 276.147,368.75 292.771,368.75L1931.33,368.75C1947.95,368.75 1961.45,382.753 1961.45,400C1961.45,417.247 1947.95,431.25 1931.33,431.25L292.771,431.25ZM196.386,1031.25C179.762,1031.25 166.265,1017.25 166.265,1000C166.265,982.753 179.762,968.75 196.386,968.75L1073.49,968.75C1090.12,968.75 1103.61,982.753 1103.61,1000C1103.61,1017.25 1090.12,1031.25 1073.49,1031.25L196.386,1031.25ZM196.386,1631.25C179.762,1631.25 166.265,1617.25 166.265,1600C166.265,1582.75 179.762,1568.75 196.386,1568.75L1362.65,1568.75C1379.28,1568.75 1392.77,1582.75 1392.77,1600C1392.77,1617.25 1379.28,1631.25 1362.65,1631.25L196.386,1631.25ZM437.349,1331.25C420.725,1331.25 407.229,1317.25 407.229,1300C407.229,1282.75 420.725,1268.75 437.349,1268.75L1218.07,1268.75C1234.7,1268.75 1248.19,1282.75 1248.19,1300C1248.19,1317.25 1234.7,1331.25 1218.07,1331.25L437.349,1331.25ZM100,2231.25C83.376,2231.25 69.88,2217.25 69.88,2200C69.88,2182.75 83.376,2168.75 100,2168.75L1661.45,2168.75C1678.07,2168.75 1691.57,2182.75 1691.57,2200C1691.57,2217.25 1678.07,2231.25 1661.45,2231.25L100,2231.25ZM678.313,1931.25C661.689,1931.25 648.193,1917.25 648.193,1900C648.193,1882.75 661.689,1868.75 678.313,1868.75L1507.23,1868.75C1523.85,1868.75 1537.35,1882.75 1537.35,1900C1537.35,1917.25 1523.85,1931.25 1507.23,1931.25L678.313,1931.25Z" style="fill:rgb(0,151,85);"/>
        </g>
    </g>
</svg>
