<?xml version="1.0" encoding="UTF-8" standalone="no"?>
<!DOCTYPE svg PUBLIC "-//W3C//DTD SVG 1.1//EN" "http://www.w3.org/Graphics/SVG/1.1/DTD/svg11.dtd">
<svg width="100%" height="100%" viewBox="0 0 800 800" version="1.1" xmlns="http://www.w3.org/2000/svg" xmlns:xlink="http://www.w3.org/1999/xlink" xml:space="preserve" xmlns:serif="http://www.serif.com/" style="fill-rule:evenodd;clip-rule:evenodd;stroke-linejoin:round;stroke-miterlimit:2;">
    <g transform="matrix(1,0,0,1,-21.5011,-1.70371)">
        <path d="M421.5,194.6C495.079,64 642.237,64 715.816,129.3C789.398,194.6 789.398,325.2 715.816,455.8C664.31,553.75 531.869,651.7 421.5,717C311.131,651.7 178.69,553.75 127.184,455.8C53.605,325.2 53.605,194.6 127.184,129.3C200.763,64 347.921,64 421.5,194.6Z" style="fill:rgb(235,235,235);"/>
    </g>
    <g transform="matrix(0.776669,0,0,0.776669,50.4989,50.555)">
        <path d="M1.277,248.864C2.405,236.327 4.281,224.167 6.904,212.442C17.067,167.02 38.45,128.129 71.053,99.195C165.79,15.117 355.263,15.118 449.999,183.271C505.495,84.769 593.499,43.968 675.925,43.968C734.209,43.968 789.704,64.369 828.945,99.195C859.066,125.925 879.611,161.155 890.579,202.181C903.108,249.046 903.14,303.474 890.677,361.439C889.569,366.593 888.362,371.775 887.056,376.982C879.797,405.931 869.484,435.657 856.117,465.673C849.29,481.003 841.666,496.409 833.246,511.826C831.835,514.41 830.364,516.974 828.945,519.579C807.293,559.346 776.275,599.731 738.412,638.458C673.706,704.64 590.698,766.882 510.627,818.453C490.105,831.67 469.777,844.186 449.999,855.887C406.659,830.245 360.676,800.693 315.812,768.423C307.442,762.403 299.112,756.288 290.844,750.087C218.842,696.076 151.646,635.478 105.394,573.409C93.837,557.899 83.588,542.298 74.898,526.684C73.58,524.316 72.332,521.93 71.052,519.579C26.192,437.185 1.337,356.107 0.055,284.027L0,284C0,284 -0,277.854 -0,277.845C0,267.988 0.426,258.319 1.277,248.864Z" style="fill:rgb(48,46,44);"/>
        <path d="M1.277,248.864C2.405,236.327 4.281,224.167 6.904,212.442L16.7,223C33.3,241 66.7,277 100,295.8C133.3,314.7 166.7,316.3 200,276.5C233.3,236.7 266.7,155.3 300,150C333.3,144.7 366.7,215.3 400,239.7C433.3,264 466.7,242 500,224.3C533.3,206.7 566.7,193.3 600,210.5C633.3,227.7 666.7,275.3 700,285.2C733.3,295 766.7,267 800,275.5C813.386,278.917 826.788,288.232 839.109,299.612C857.438,316.543 873.373,338.045 883.3,351.5L890.677,361.439C889.569,366.593 888.362,371.775 887.056,376.982C879.797,405.931 869.484,435.657 856.117,465.673C849.29,481.003 841.666,496.409 833.246,511.826C831.835,514.41 830.364,516.974 828.945,519.579C807.293,559.346 776.275,599.731 738.412,638.458C673.706,704.64 590.698,766.882 510.627,818.453C490.105,831.67 469.777,844.186 449.999,855.887C406.659,830.245 360.676,800.693 315.812,768.423C307.442,762.403 299.112,756.288 290.844,750.087C218.842,696.076 151.646,635.478 105.394,573.409C93.837,557.899 83.588,542.298 74.898,526.684C73.58,524.316 72.332,521.93 71.052,519.579C26.192,437.185 1.337,356.107 0.055,284.027L0,284C0,284 -0,277.854 -0,277.845C0,267.988 0.426,258.319 1.277,248.864Z" style="fill:rgb(0,151,85);fill-rule:nonzero;"/>
        <path d="M510.627,818.453C490.105,831.67 469.777,844.186 449.999,855.887C406.659,830.245 360.676,800.693 315.812,768.423C307.442,762.403 299.112,756.288 290.844,750.087C218.842,696.076 151.646,635.478 105.394,573.409C93.837,557.899 83.588,542.298 74.898,526.684C73.58,524.316 72.332,521.93 71.052,519.579C26.192,437.185 187.737,388.928 200,412.2C226.165,420.136 243.235,455.397 269.426,449.928C276.156,448.522 282.883,447.565 289.606,447.513C290.019,447.509 290.431,447.51 290.844,447.513C324.144,447.813 366.7,423.7 400,391.3C405.801,385.673 411.605,378.356 417.411,369.965C444.934,330.191 472.501,266.296 500,244C533.3,217 566.7,251 600,283.5C633.3,316 666.7,347 700,364C703.569,365.822 707.138,367.483 710.709,368.957C712.843,369.837 714.977,370.651 717.111,371.392C744.733,380.987 772.401,378.436 800,351.5C813.386,338.436 826.788,319.635 839.109,299.612C857.438,269.825 873.373,237.333 883.3,217L890.579,202.181C903.108,249.046 903.14,303.474 890.677,361.439C889.569,366.593 888.362,371.775 887.056,376.982C879.797,405.931 869.484,435.657 856.117,465.673C849.29,481.003 841.666,496.409 833.246,511.826C831.835,514.41 830.364,516.974 828.945,519.579C807.293,559.346 776.275,599.731 738.412,638.458C673.706,704.64 590.698,766.882 510.627,818.453Z" style="fill:rgb(0,97,97);fill-rule:nonzero;"/>
        <path d="M887.056,376.982C879.797,405.931 869.484,435.657 856.117,465.673C849.29,481.003 841.666,496.409 833.246,511.826C831.835,514.41 830.401,516.995 828.945,519.579C807.872,559.655 776.275,599.731 738.412,638.458C673.706,704.64 590.698,766.882 510.627,818.452C490.105,831.67 469.777,844.186 449.999,855.887C406.659,830.245 360.676,800.693 315.812,768.423C307.442,762.403 299.111,756.288 290.844,750.087C218.842,696.076 151.646,635.478 105.394,573.409C93.837,557.899 83.588,542.298 74.898,526.684C73.58,524.316 72.298,521.948 71.052,519.579C25.003,437.843 1.337,356.107 0.055,284.027L16.7,292.2C33.3,300.3 66.7,316.7 100,333.3C104.58,335.597 109.162,337.899 113.745,340.2C142.485,354.629 171.28,368.994 200,381.5C226.165,392.893 252.391,402.743 278.582,402.414C285.312,402.33 292.039,401.574 298.762,399.999C299.175,399.903 299.587,399.803 300,399.7C333.3,391.3 366.7,362.7 400,365.7C405.801,366.223 411.605,367.704 417.411,369.965C444.934,380.682 472.501,408.909 500,435.5C533.3,467.7 566.7,497.3 600,473.7C633.3,450 666.7,373 700,368.2C703.569,367.675 707.138,367.98 710.709,368.957C712.843,369.54 714.977,370.363 717.111,371.392C729.812,377.516 742.523,390.928 755.232,404.476C770.163,420.393 785.091,436.499 800,441.2C808.917,444.012 817.842,442.743 826.449,438.935C849.983,428.52 871.145,399.114 883.3,382.2L887.056,376.982Z" style="fill:rgb(0,114,206);fill-rule:nonzero;"/>
        <path d="M833.246,511.826C831.835,514.41 830.401,516.995 828.945,519.579C807.872,559.655 776.275,599.731 738.412,638.458C673.706,704.64 590.698,766.882 510.627,818.452C490.105,831.67 469.777,844.186 449.999,855.887C406.659,830.245 360.676,800.693 315.812,768.423C307.442,762.403 299.111,756.288 290.844,750.087C218.842,696.076 151.646,635.478 105.394,573.409C93.837,557.899 83.588,542.298 74.898,526.684C83.087,534.394 91.547,541.608 100,547.7C133.3,571.7 166.7,578.3 200,563.2C233.3,548 266.7,511 300,477C333.3,443 366.7,412 400,404.7C433.3,397.3 466.7,413.7 500,443.7C533.3,473.7 566.7,517.3 600,511.2C633.3,505 666.7,449 700,422.8C718.391,408.385 736.813,403.03 755.232,404.476C770.163,405.648 785.091,411.291 800,420.2C808.917,425.502 817.842,431.966 826.449,438.935C837.017,447.491 847.106,456.809 856.117,465.673C849.29,481.003 841.666,496.409 833.246,511.826Z" style="fill:rgb(210,76,43);fill-rule:nonzero;"/>
        <path d="M833.246,511.826C831.835,514.41 830.401,516.995 828.945,519.579C807.872,559.655 776.275,599.731 738.412,638.458C673.706,704.64 590.698,766.882 510.627,818.452C490.105,831.67 469.777,844.186 449.999,855.887C406.659,830.245 360.676,800.693 315.812,768.423C307.442,762.403 299.111,756.288 290.844,750.087C218.842,696.076 151.646,635.478 105.394,573.409C136.906,582.83 168.498,592.597 200,597.8C233.3,603.3 266.7,603.7 300,601C333.3,598.3 366.7,592.7 400,595.2C433.3,597.7 466.7,608.3 500,607.5C533.3,606.7 566.7,594.3 600,583.8C633.3,573.3 666.7,564.7 700,555C733.3,545.3 766.7,534.7 800,523.3C811.29,519.469 822.592,515.557 833.246,511.826Z" style="fill:rgb(137,24,92);fill-rule:nonzero;"/>
        <path d="M738.412,638.458C673.706,704.64 590.698,766.882 510.627,818.452C490.105,831.67 469.777,844.186 449.999,855.887C406.659,830.245 360.676,800.693 315.812,768.423C307.442,762.403 299.111,756.288 290.844,750.087C293.897,750.042 296.949,749.848 300,749.5C333.3,745.7 366.7,723.3 400,700.7C433.3,678 466.7,655 500,667.7C533.3,680.3 566.7,728.7 600,721.7C633.3,714.7 666.7,652.3 700,638C712.793,632.506 725.601,634.082 738.412,638.458Z" style="fill:rgb(235,167,14);fill-rule:nonzero;"/>
    </g>
</svg>
